<?xml version="1.0" encoding="UTF-8" standalone="no"?>
<svg
   id="SVGLogo"
   viewBox="0 0 256 256"
   height="256px"
   width="256px">
  <g
     id="logo">
    <circle
       r="120"
       cy="128"
       cx="128"
       id="path1996"
       style="opacity:1;fill:none;fill-opacity:1;stroke:#ffffff;stroke-width:1;stroke-opacity:1" />
    <path
       id="path1711"
       d="m 148,197 -28,-45 -23,17 31,39 z"
       style="fill:#aa87de;fill-opacity:1;stroke:none;stroke-width:1px;stroke-opacity:1" />
    <path
       id="path1713"
       d="M 181,115 104,64 66,91 108,120 Z"
       style="fill:#aa87de;fill-opacity:1;stroke:none;stroke-width:1px;stroke-opacity:1" />
    <path
       id="path1698"
       d="M 128.12891 8.3847656 A 120 120 0 0 0 119.63867 8.6855469 A 120 120 0 0 0 107.73242 10.130859 A 120 120 0 0 0 96.027344 12.757812 A 120 120 0 0 0 84.644531 16.539062 A 120 120 0 0 0 73.697266 21.439453 A 120 120 0 0 0 63.291016 27.408203 A 120 120 0 0 0 53.535156 34.384766 A 120 120 0 0 0 45.4375 41.498047 L 64.814453 89.935547 L 65.978516 92.849609 A 120 120 0 0 1 72.361328 87.242188 A 120 120 0 0 1 82.117188 80.265625 A 120 120 0 0 1 92.523438 74.296875 A 120 120 0 0 1 103.4707 69.396484 A 120 120 0 0 1 114.85352 65.615234 A 120 120 0 0 1 126.55859 62.988281 A 120 120 0 0 1 138.46484 61.542969 A 120 120 0 0 1 146.95312 61.242188 A 120 120 0 0 1 158.93359 61.841797 A 120 120 0 0 1 161.46484 62.224609 A 120 120 0 0 1 170.79492 63.632812 A 120 120 0 0 1 182.41602 66.601562 A 120 120 0 0 1 193.68359 70.714844 A 120 120 0 0 1 198.25 72.919922 L 210.7832 41.587891 A 120 120 0 0 0 205.43359 36.603516 A 120 120 0 0 0 195.88477 29.34375 A 120 120 0 0 0 185.6582 23.074219 A 120 120 0 0 0 174.85742 17.857422 A 120 120 0 0 0 163.58984 13.744141 A 120 120 0 0 0 151.96875 10.775391 A 120 120 0 0 0 140.10742 8.984375 A 120 120 0 0 0 128.12891 8.3847656 z "
       style="opacity:1;fill:#aaeeff;fill-opacity:1;stroke:none;stroke-width:0;stroke-opacity:1" />
    <path
       id="path1678"
       d="M 152.02344 110.47852 A 120 120 0 0 0 143.5332 110.7793 A 120 120 0 0 0 131.62695 112.22461 A 120 120 0 0 0 119.92188 114.85156 A 120 120 0 0 0 108.53906 118.63477 A 120 120 0 0 0 97.591797 123.5332 A 120 120 0 0 0 87.185547 129.50195 A 120 120 0 0 0 82.548828 132.81836 A 120 120 0 0 0 82.095703 133.14258 L 82.802734 134.91016 L 90.787109 154.87109 L 96.826172 169.96875 A 120 120 0 0 1 103.49805 166.98242 A 120 120 0 0 1 106.36719 165.69922 A 120 120 0 0 1 117.75 161.91602 A 120 120 0 0 1 129.45508 159.28906 A 120 120 0 0 1 141.36133 157.84375 A 120 120 0 0 1 149.84961 157.54297 A 120 120 0 0 1 161.83008 158.14258 A 120 120 0 0 1 162.83398 158.29492 A 120 120 0 0 1 164.0293 158.47461 L 165.4375 154.95117 L 173.43359 134.96094 L 181.67578 114.35547 A 120 120 0 0 0 175.86328 112.87109 A 120 120 0 0 0 170.9707 112.13086 A 120 120 0 0 0 164.00195 111.07812 A 120 120 0 0 0 152.02344 110.47852 z "
       style="opacity:1;fill:#aaeeff;fill-opacity:1;stroke:none;stroke-width:0;stroke-opacity:1" />
    <path
       id="path1688"
       d="M 148.72461 196.73633 A 120 120 0 0 0 142.81055 196.94531 A 120 120 0 0 0 130.90234 198.39062 A 120 120 0 0 0 119.19922 201.01758 A 120 120 0 0 0 117.27344 201.6582 A 120 120 0 0 0 110.41406 203.93555 L 128.12891 248.22461 L 147.43164 199.9668 L 148.72461 196.73633 z "
       style="opacity:1;fill:#aaeeff;fill-opacity:1;stroke:none;stroke-width:0;stroke-opacity:1" />
  </g>
</svg>
