<?xml version="1.0" encoding="UTF-8" standalone="no"?>
<svg
   xmlns:dc="http://purl.org/dc/elements/1.1/"
   xmlns:cc="http://creativecommons.org/ns#"
   xmlns:rdf="http://www.w3.org/1999/02/22-rdf-syntax-ns#"
   xmlns:svg="http://www.w3.org/2000/svg"
   xmlns="http://www.w3.org/2000/svg"
   width="256px"
   height="256px"
   viewBox="0 0 256 256"
   version="1.1"
   id="SVGRoot">
  <defs
     id="defs10" />
  <metadata
     id="metadata13">
    <rdf:RDF>
      <cc:Work
         rdf:about="">
        <dc:format>image/svg+xml</dc:format>
        <dc:type
           rdf:resource="http://purl.org/dc/dcmitype/StillImage" />
        <dc:title></dc:title>
      </cc:Work>
    </rdf:RDF>
  </metadata>
  <g
     id="rocket">
    <path
       style="fill:#000000;stroke:#000000;stroke-width:1px;stroke-linecap:butt;stroke-linejoin:miter;stroke-opacity:1"
       d="m 128,52 c 0,0 -5,4.071797 -9,11 -4,6.928203 -6,13 -6,13 h 30 c 0,0 -1.62043,-6 -6,-13 -4.37957,-7 -9,-11 -9,-11 z"
       id="path105" />
    <path
       style="fill:#000000;stroke:#000000;stroke-width:1px;stroke-linecap:butt;stroke-linejoin:miter;stroke-opacity:1"
       d="m 112,80 c 0,0 -4.31083,13.197709 -4,28 0.31084,14.80229 8,60 8,60 h 24 c 0,0 7.68916,-45.19771 8,-60 0.31084,-14.802291 -4,-28 -4,-28 z m 16.53711,14.013672 c 2.81678,0.154362 5.54469,1.533906 7.29101,3.767578 6.69887,7.47937 -2.8227,19.80813 -11.73242,15.42188 -9.59607,-3.41996 -6.95714,-19.088172 3.23047,-19.179692 0.40338,-0.02905 0.80854,-0.03182 1.21094,-0.0098 z"
       id="path107" />
    <path
       style="fill:#000000;stroke:#000000;stroke-width:0.98273075px;stroke-linecap:butt;stroke-linejoin:miter;stroke-opacity:1"
       d="m 116.46571,172.492 v 4.01726 H 139.5443 V 172.492 Z"
       id="path109" />
    <path
       style="fill:#000000;stroke:#000000;stroke-width:1px;stroke-linecap:butt;stroke-linejoin:miter;stroke-opacity:1"
       d="m 107,140 5,28 -20,12 4,-36 z"
       id="path111" />
    <path
       style="fill:#000000;stroke:#000000;stroke-width:1px;stroke-linecap:butt;stroke-linejoin:miter;stroke-opacity:1"
       d="m 149,140 -5,28 20,12 -4,-36 z"
       id="path113" />
    <path
       style="fill:none;stroke:#000000;stroke-width:3px;stroke-linecap:butt;stroke-linejoin:miter;stroke-opacity:1"
       d="m 120,180 c 0,36 -16,36 -20,28"
       id="path115" />
    <path
       style="fill:none;stroke:#000000;stroke-width:3px;stroke-linecap:butt;stroke-linejoin:miter;stroke-opacity:1"
       d="m 128,180 c 0,0 0,44 0,44"
       id="path123" />
    <path
       style="fill:none;stroke:#000000;stroke-width:3px;stroke-linecap:butt;stroke-linejoin:miter;stroke-opacity:1"
       d="m 136,180 c 0,36 16,36 20,28"
       id="path221" />
    <circle
       style="fill:#000000;fill-opacity:1"
       id="path57"
       cx="226"
       cy="42"
       r="6" />
    <circle
       style="fill:#000000;fill-opacity:1"
       id="path59"
       cx="68"
       cy="100"
       r="4" />
    <circle
       style="fill:#000000;fill-opacity:1"
       id="path61"
       cx="22"
       cy="38"
       r="6" />
    <circle
       style="fill:#000000;fill-opacity:1"
       id="path63"
       cx="192"
       cy="152"
       r="4" />
    <circle
       style="fill:#000000;fill-opacity:1"
       id="path65"
       cx="22"
       cy="170"
       r="2" />
    <circle
       style="fill:#000000;fill-opacity:1"
       id="path67"
       cx="157.58524"
       cy="34.362038"
       r="2" />
  </g>
</svg>
