<?xml version="1.0" encoding="UTF-8" standalone="no"?>
<svg
   id="SVGwolf"
   viewBox="0 0 256 256"
   height="256px"
   width="256px">
  <g
     id="layer1">
    <path
       id="path2005"
       d="M 16,40 H 240 L 128,240 Z"
       style="fill:#666666;stroke:none;stroke-width:1px;stroke-opacity:1" />
    <path
       id="path1970"
       d="m 184,140 c -21.36242,22.24632 -23.1816,48.18581 4,56 -59.66223,12.39031 -46.23614,-39.36465 -4,-56 z"
       style="fill:#b3b3b3;stroke:none;stroke-width:1px;stroke-opacity:1;fill-opacity:1" />
    <path
       id="path1972"
       d="m 144,204 c -20,-36 4,-56 32,-68 12,-4 30.9006,-2.42487 40,-28 h -32 l 36,-32 c -0.79139,-8.668603 3.33812,-23.408173 -4,-24 l -52,24 c -18.86102,18.941094 -35.44487,19.585892 -52,20 l 36,-20 -16,-4 -96,36 c 20.265267,14.38036 36.168413,18.5903 56,16 -26.557013,16.07631 -15.47007,35.82439 0,56 -0.577517,-20.95852 8.43344,-37.12045 36,-44 -36,28 -32,64 16,68 z"
       style="fill:#999999;stroke:none;stroke-width:1px;stroke-opacity:1;fill-opacity:1" />
  </g>
</svg>
